<svg width="96" height="96" viewBox="0 0 96 96" fill="none" xmlns="http://www.w3.org/2000/svg">
<path fill-rule="evenodd" clip-rule="evenodd" d="M0 13.8764V82.1236C0 89.7873 6.21266 96 13.8764 96H82.1236C89.7873 96 96 89.7873 96 82.1236V13.8764C96 6.21266 89.7873 0 82.1236 0H13.8764C6.21266 0 0 6.21266 0 13.8764ZM8.72727 13.8764C8.72727 11.0326 11.0326 8.72727 13.8764 8.72727H21.8182V21.8182H8.72727V13.8764ZM8.72727 30.5455H21.8182V43.6364H8.72727V30.5455ZM87.2727 21.8182V13.8764C87.2727 11.0326 84.9674 8.72727 82.1236 8.72727H74.1818V21.8182H87.2727ZM74.1818 30.5455H87.2727V43.6364H74.1818V30.5455ZM65.4545 8.72727H30.5455V43.6364H65.4545V8.72727ZM87.2727 52.3636V65.4545H74.1818V52.3636H87.2727ZM87.2727 74.1818H74.1818V87.2727H82.1236C84.9674 87.2727 87.2727 84.9674 87.2727 82.1236V74.1818ZM65.4545 52.3636V87.2727H30.5455V52.3636H65.4545ZM8.72727 74.1818V82.1236C8.72727 84.9674 11.0326 87.2727 13.8764 87.2727H21.8182V74.1818H8.72727ZM21.8182 65.4545H8.72727V52.3636H21.8182V65.4545Z" fill="black"/>
</svg>
