<svg aria-hidden="true" style="position:absolute;width:0;height:0;overflow:hidden" xmlns="http://www.w3.org/2000/svg"><defs><symbol id="icon-cross" viewBox="0 0 32 32"><path d="M.586 28.586a2 2 0 1 0 2.828 2.828L16 18.828l12.586 12.586a2 2 0 1 0 2.828-2.828L18.828 16 31.414 3.414A2 2 0 1 0 28.586.586L16 13.172 3.414.586A2 2 0 1 0 .586 3.414L13.172 16 .586 28.586z"/></symbol><symbol id="icon-heart" viewBox="0 0 34 32"><path fill="#ff6b08" style="fill:var(--color1, #ff6b08)" d="m17.231 31.705-2.412-2.412C5.859 21.367.001 16.025.001 9.478.001 4.136 4.136.001 9.478.001c2.929 0 5.858 1.378 7.754 3.618 1.895-2.24 4.825-3.618 7.754-3.618 5.342 0 9.477 4.135 9.477 9.477 0 6.548-5.858 11.889-14.818 19.815l-2.412 2.412z"/></symbol><symbol id="icon-search" viewBox="0 0 32 32"><path d="m23.388 25.651 5.881 5.881a1.6 1.6 0 1 0 2.263-2.263l-5.881-5.881a14.336 14.336 0 0 0 3.149-8.989c0-7.953-6.447-14.4-14.4-14.4S0 6.446 0 14.399s6.447 14.4 14.4 14.4c3.4 0 6.524-1.178 8.988-3.149zM3.2 14.4c0-6.185 5.014-11.2 11.2-11.2s11.2 5.014 11.2 11.2c0 3.018-1.194 5.758-3.136 7.772a1.662 1.662 0 0 0-.293.293 11.163 11.163 0 0 1-7.772 3.135c-6.186 0-11.2-5.014-11.2-11.2z"/></symbol><symbol id="icon-film-logo-big" viewBox="0 0 217 32"><path fill="#fff" style="fill:var(--color2, #fff)" d="M81.369 30.667h-4.746v-30h4.746v30zM66.388 30.667h4.746V9.534h-4.746v21.133zM66.779 2.229c-.456.482-.684 1.087-.684 1.816 0 .716.228 1.315.684 1.797.469.469 1.133.703 1.992.703s1.523-.234 1.992-.703c.469-.482.703-1.081.703-1.797 0-.729-.234-1.335-.703-1.816s-1.133-.723-1.992-.723-1.523.241-1.992.723zM49.493 18.616h11.445v-3.945H49.493V6.214h13.125V2.23H44.552v28.438h4.941V18.617zM91.154 11.741l-.137-2.207h-4.473v21.133h4.746V15.354c.794-1.549 2.142-2.324 4.043-2.324 2.474 0 3.743 1.244 3.809 3.73v13.906h4.746l-.019-14.492c.273-.938.749-1.693 1.426-2.266.69-.586 1.575-.879 2.656-.879 1.354 0 2.324.312 2.91.938s.879 1.608.879 2.949v13.75h4.746V16.779c-.026-2.513-.612-4.414-1.758-5.703-1.133-1.289-2.865-1.934-5.195-1.934-2.786 0-4.948 1.081-6.484 3.242-1.042-2.161-2.975-3.242-5.801-3.242-2.578 0-4.609.866-6.094 2.598zM120.47 19.905c0-2.07.41-3.932 1.231-5.586.82-1.667 1.973-2.943 3.457-3.828 1.484-.898 3.19-1.348 5.117-1.348 2.851 0 5.163.918 6.933 2.754 1.784 1.836 2.748 4.271 2.891 7.305l.02 1.113c0 2.083-.404 3.945-1.211 5.586-.795 1.641-1.94 2.91-3.437 3.809-1.485.899-3.204 1.348-5.157 1.348-2.982 0-5.371-.99-7.168-2.969-1.784-1.992-2.676-4.642-2.676-7.949v-.234zm4.746.41c0 2.175.449 3.88 1.348 5.117.898 1.224 2.148 1.836 3.75 1.836s2.845-.625 3.73-1.875c.899-1.25 1.348-3.079 1.348-5.488 0-2.135-.463-3.828-1.387-5.078-.912-1.25-2.155-1.875-3.731-1.875-1.55 0-2.78.618-3.691 1.855-.911 1.224-1.367 3.06-1.367 5.508zM150.08 9.534V4.397h-4.747v5.137h-3.476v3.516h3.476v11.973c0 4.023 1.823 6.035 5.469 6.035 1.003 0 2.044-.15 3.124-.449v-3.672a7.32 7.32 0 0 1-1.66.195c-.82 0-1.393-.176-1.719-.527-.312-.365-.468-.951-.468-1.758V13.05h3.729V9.534h-3.729zM166.759 31.057c-3.008 0-5.449-.944-7.324-2.832-1.861-1.901-2.793-4.427-2.793-7.578v-.586c0-2.109.404-3.991 1.212-5.645.82-1.667 1.965-2.962 3.437-3.887 1.471-.924 3.112-1.387 4.921-1.387 2.877 0 5.097.918 6.66 2.754 1.576 1.836 2.364 4.434 2.364 7.793v1.914h-13.809c.144 1.745.723 3.125 1.739 4.141 1.029 1.016 2.317 1.523 3.867 1.523 2.175 0 3.945-.879 5.313-2.637l2.559 2.441c-.847 1.263-1.98 2.246-3.399 2.949-1.407.69-2.988 1.035-4.747 1.035zm-.566-18.105c-1.303 0-2.357.456-3.165 1.367-.793.911-1.301 2.181-1.523 3.809h9.043v-.352c-.104-1.589-.527-2.786-1.269-3.594-.743-.82-1.771-1.23-3.085-1.23zM183.693 23.772l2.109-2.168 6.269 9.063h5.488l-8.692-12.324 7.852-8.809h-5.703l-5.84 6.582-1.484 1.855V.666h-4.747v30h4.747v-6.895zM212.463 30.667c-.209-.404-.391-1.061-.547-1.973-1.511 1.575-3.36 2.363-5.548 2.363-2.121 0-3.853-.605-5.195-1.816s-2.012-2.708-2.012-4.492c0-2.253.833-3.978 2.5-5.176 1.68-1.211 4.076-1.816 7.188-1.816h2.909V16.37c0-1.094-.305-1.966-.917-2.617-.612-.664-1.543-.996-2.793-.996-1.08 0-1.965.273-2.656.82-.691.534-1.035 1.217-1.035 2.051h-4.747c0-1.159.384-2.24 1.152-3.242.768-1.016 1.811-1.81 3.125-2.383 1.328-.573 2.807-.859 4.433-.859 2.475 0 4.447.625 5.919 1.875 1.471 1.237 2.227 2.982 2.265 5.234v9.531c0 1.901.267 3.418.8 4.551v.332h-4.843zm-5.215-3.418a5.34 5.34 0 0 0 2.636-.684c.833-.456 1.459-1.068 1.875-1.836v-3.984H209.2c-1.757 0-3.079.306-3.964.918s-1.328 1.478-1.328 2.598c0 .911.299 1.641.897 2.187.612.534 1.427.801 2.443.801zM4.24 1.333A4.24 4.24 0 0 0 0 5.573v20.853a4.24 4.24 0 0 0 4.24 4.24h20.853a4.24 4.24 0 0 0 4.24-4.24V5.573a4.24 4.24 0 0 0-4.24-4.24H4.24zM4.24 4c-.869 0-1.573.704-1.573 1.573V8h4V4H4.24zM2.667 14.667v-4h4v4h-4zm6.666 0V4H20v10.667H9.333zm13.334-4v4h4v-4h-4zm0-2.667V4h2.427c.869 0 1.573.704 1.573 1.573V8h-4zm4 9.333v4h-4v-4h4zm-4 6.667h4v2.427c0 .869-.704 1.573-1.573 1.573h-2.427v-4zM20 17.333V28H9.333V17.333H20zM6.667 24h-4v2.427c0 .869.704 1.573 1.573 1.573h2.427v-4zm0-2.667v-4h-4v4h4z"/></symbol><symbol id="icon-film-logo" viewBox="0 0 32 32"><path fill="#fff" style="fill:var(--color2, #fff)" d="M0 4.625v22.749a4.625 4.625 0 0 0 4.625 4.625h22.749a4.625 4.625 0 0 0 4.625-4.625V4.625A4.625 4.625 0 0 0 27.374 0H4.625A4.625 4.625 0 0 0 0 4.625zm2.909 0c0-.948.768-1.716 1.716-1.716h2.647v4.364H2.908V4.626zm0 5.557h4.364v4.364H2.909v-4.364zm26.182-2.909h-4.364V2.909h2.647c.948 0 1.716.768 1.716 1.716v2.647zm-4.364 2.909h4.364v4.364h-4.364v-4.364zm-2.909-7.273v11.636H10.182V2.909h11.636zm7.273 14.546v4.364h-4.364v-4.364h4.364zm0 7.272v2.647c0 .948-.769 1.716-1.716 1.716h-2.647v-4.364h4.364zm-7.273-7.272v11.636H10.182V17.455h11.636zM2.909 24.727h4.364v4.364H4.626a1.716 1.716 0 0 1-1.716-1.716v-2.647zm4.364-2.909H2.909v-4.364h4.364v4.364z"/></symbol><symbol id="icon-arrow-right" viewBox="0 0 32 32"><path d="M15.105 4.793a1.846 1.846 0 0 1 2.611-2.611l12.898 12.899a1.838 1.838 0 0 1 .488 1.86 1.84 1.84 0 0 1-.463.776L17.716 30.64a1.846 1.846 0 0 1-2.611-2.611l9.772-9.772H3.487a1.846 1.846 0 0 1 0-3.692h21.389l-9.771-9.771z"/></symbol><symbol id="icon-arrow-left" viewBox="0 0 32 32"><path d="M17.414 3.414A2 2 0 1 0 14.586.586l-14 14c-.384.384-.58.886-.586 1.39v.025c0 .571.239 1.087.624 1.451l13.962 13.962a2 2 0 1 0 2.828-2.828L6.829 18.001H30a2 2 0 1 0 0-4H6.827L17.414 3.414z"/></symbol></defs></svg>